        <svg version="1.1" style="font-family: Roboto; font-size: 12px;" xmlns="http://www.w3.org/2000/svg" width="650" height="400" viewBox="0 0 650 400" aria-hidden="false" aria-label="Interactive chart"><defs aria-hidden="true"><clipPath ><rect x="0" y="0" width="630" height="302" fill="none"></rect></clipPath></defs><rect fill="#ffffff" x="0" y="0" width="650" height="400" rx="0" ry="0" aria-hidden="true"></rect><rect fill="none" x="10" y="45" width="630" height="302" aria-hidden="true"></rect><g data-z-index="0" aria-hidden="true"></g><rect fill="none" data-z-index="1" x="10" y="45" width="630" height="302" aria-hidden="true"></rect><g data-z-index="3" aria-hidden="false"><g data-z-index="0.1" opacity="1" transform="translate(10,45) scale(1 1)" style="cursor: pointer;" aria-hidden="false" clip-path="none"><path fill="#94d13d" d="M 314.9766183162158 36.20000238111125 A 114.8 114.8 0 0 1 369.71501114956914 251.92228472890673 L 369.23839955418964 251.04317075043195 A 113.8 113.8 0 0 0 314.9768219894195 37.200002360369865 Z" data-z-index="-1" fill-opacity="0.25" visibility="hidden"></path><path fill="rgb(148,209,61)" d="M 314.9766183162158 36.20000238111125 A 114.8 114.8 0 0 1 369.71501114956914 251.92228472890673 L 315 151 A 0 0 0 0 0 315 151 Z" transform="translate(0,0)" stroke="#ffffff" stroke-width="1" opacity="1" stroke-linejoin="round" tabindex="-1" role="img" aria-label="Item 1, 80." style="outline: none;"></path><path fill="#6f58e9" d="M 369.61406152415736 251.97694926979898 A 114.8 114.8 0 0 1 200.60086229344932 160.58526431548205 L 315 151 A 0 0 0 0 0 315 151 Z" transform="translate(0,0)" stroke="#ffffff" stroke-width="1" opacity="1" stroke-linejoin="round" tabindex="-1" role="img" aria-label="Item 2, 60." style="outline: none;"></path><path fill="#2d99fe" d="M 200.59133423029544 160.47086040421027 A 114.8 114.8 0 0 1 244.39772717486406 60.47730079187281 L 315 151 A 0 0 0 0 0 315 151 Z" transform="translate(0,0)" stroke="#ffffff" stroke-width="1" opacity="1" stroke-linejoin="round" tabindex="-1" role="img" aria-label="Item 3, 30." style="outline: none;"></path><path fill="#2ddac1" d="M 244.48828516011855 60.40674379216054 A 114.8 114.8 0 0 1 314.8405451031094 36.20011073987982 L 315 151 A 0 0 0 0 0 315 151 Z" transform="translate(0,0)" stroke="#ffffff" stroke-width="1" opacity="1" stroke-linejoin="round" tabindex="-1" role="img" aria-label="Item 4, 20." style="outline: none;"></path></g><g data-z-index="0.1" opacity="1" transform="translate(10,45) scale(1 1)" aria-hidden="true" clip-path="none"></g></g><g data-z-index="3" aria-hidden="true"><g stroke-linecap="round" style="cursor: pointer;" transform="translate(616,10)"><title>Chart context menu</title><rect fill="#ffffff" x="0.5" y="0.5" width="24" height="22" rx="2" ry="2" stroke="none" stroke-width="1"></rect><path fill="#666666" d="M 6 6.5 L 20 6.5 M 6 11.5 L 20 11.5 M 6 16.5 L 20 16.5" data-z-index="1" stroke="#666666" stroke-width="3"></path><text font-family='Roboto-Regular,Roboto' x="0" data-z-index="1" y="15.5" style="color: rgb(51, 51, 51); font-weight: normal; fill: rgb(51, 51, 51);"></text></g></g><text font-family='Roboto-Regular,Roboto' x="325" text-anchor="middle" data-z-index="4" style="color: rgb(51, 51, 51); font-size: 18px; fill: rgb(51, 51, 51);" y="24" aria-hidden="true">Chart title</text><text font-family='Roboto-Regular,Roboto' x="325" text-anchor="middle" data-z-index="4" style="color: rgb(102, 102, 102); fill: rgb(102, 102, 102);" y="44" aria-hidden="true"></text><text font-family='Roboto-Regular,Roboto' x="10" text-anchor="start" data-z-index="4" style="color: rgb(102, 102, 102); fill: rgb(102, 102, 102);" y="397" aria-hidden="true"></text><g data-z-index="7" aria-hidden="true" transform="translate(177,359)"><rect fill="none" rx="0" ry="0" x="0" y="0" width="296" height="26"></rect><g data-z-index="1"><g><g data-z-index="1" transform="translate(8,3)"><text font-family='Roboto-Regular,Roboto' x="21" text-anchor="start" data-z-index="2" y="15" style="color: rgb(51, 51, 51); cursor: pointer; font-size: 12px; font-weight: bold; fill: rgb(51, 51, 51);">Item 1</text><rect x="2" y="4" width="12" height="12" fill="#94d13d" rx="6" ry="6" data-z-index="3"></rect></g><g data-z-index="1" transform="translate(83,3)"><text font-family='Roboto-Regular,Roboto' x="21" y="15" text-anchor="start" data-z-index="2" style="color: rgb(51, 51, 51); cursor: pointer; font-size: 12px; font-weight: bold; fill: rgb(51, 51, 51);">Item 2</text><rect x="2" y="4" width="12" height="12" fill="#6f58e9" rx="6" ry="6" data-z-index="3"></rect></g><g data-z-index="1" transform="translate(158,3)"><text font-family='Roboto-Regular,Roboto' x="21" y="15" text-anchor="start" data-z-index="2" style="color: rgb(51, 51, 51); cursor: pointer; font-size: 12px; font-weight: bold; fill: rgb(51, 51, 51);">Item 3</text><rect x="2" y="4" width="12" height="12" fill="#2d99fe" rx="6" ry="6" data-z-index="3"></rect></g><g data-z-index="1" transform="translate(233,3)"><text font-family='Roboto-Regular,Roboto' x="21" y="15" text-anchor="start" data-z-index="2" style="color: rgb(51, 51, 51); cursor: pointer; font-size: 12px; font-weight: bold; fill: rgb(51, 51, 51);">Item 4</text><rect x="2" y="4" width="12" height="12" fill="#2ddac1" rx="6" ry="6" data-z-index="3"></rect></g></g></g></g></svg>
