        <svg version="1.1" style="font-family: Roboto; font-size: 12px;" xmlns="http://www.w3.org/2000/svg" width="650" height="400" viewBox="0 0 650 400" aria-hidden="false" aria-label="Interactive chart"><defs aria-hidden="true"><clipPath ><rect x="0" y="0" width="650" height="400" fill="none"></rect></clipPath></defs><rect fill="#ffffff" x="0" y="0" width="650" height="400" rx="0" ry="0" aria-hidden="true"></rect><g stroke-linejoin="round" data-z-index="-1000" aria-hidden="true"><path fill="none" d="M 34.79026807821538 327.5286808577627 L 614.2913466941841 327.5286808577627 L 606.6189334940243 260.21735161401523 L 42.48703814567722 260.21735161401523 Z" visibility="hidden"></path><path fill="none" d="M 43.233089187505925 260.2505693173015 L 606.7669108124941 260.2505693173015 L 614.3694018090405 326.9143278013126 L 35.63059819095952 326.9143278013126 Z" visibility="visible"></path><path fill="none" d="M 34.79026807821538 327.5286808577627 L 42.48703814567722 260.21735161401523 L 43.233089187505925 260.2505693173015 L 35.63059819095952 326.9143278013126 Z" visibility="hidden"></path><path fill="none" d="M 606.6189334940243 260.21735161401523 L 614.2913466941841 327.5286808577627 L 614.3694018090405 326.9143278013126 L 606.7669108124941 260.2505693173015 Z" visibility="hidden"></path><path fill="none" d="M 614.2913466941841 327.5286808577627 L 34.79026807821538 327.5286808577627 L 35.63059819095952 326.9143278013126 L 614.3694018090405 326.9143278013126 Z" visibility="visible"></path><path fill="none" d="M 42.48703814567722 260.21735161401523 L 606.6189334940243 260.21735161401523 L 606.7669108124941 260.2505693173015 L 43.233089187505925 260.2505693173015 Z" visibility="hidden"></path></g><g stroke-linejoin="round" data-z-index="-1000" aria-hidden="true"><path fill="none" d="M 34.79026807821538 327.5286808577627 L 35.63059819095952 326.9143278013126 L 43.233089187505925 260.2505693173015 L 42.48703814567722 260.21735161401523 Z" visibility="hidden"></path><path fill="none" d="M 18.241109616814356 59.02794428031174 L 19.12465316218004 59.6752178115494 L 10.14481218804741 126.32182908139819 L 9.145271909279359 126.32182908139819 Z" visibility="visible"></path><path fill="none" d="M 42.48703814567722 260.21735161401523 L 18.241109616814356 59.02794428031174 L 9.145271909279359 126.32182908139819 L 34.79026807821538 327.5286808577627 Z" visibility="hidden"></path><path fill="none" d="M 19.12465316218004 59.6752178115494 L 43.233089187505925 260.2505693173015 L 35.63059819095952 326.9143278013126 L 10.14481218804741 126.32182908139819 Z" visibility="visible"></path><path fill="none" d="M 34.79026807821538 327.5286808577627 L 9.145271909279359 126.32182908139819 L 10.14481218804741 126.32182908139819 L 35.63059819095952 326.9143278013126 Z" visibility="visible"></path><path fill="none" d="M 18.241109616814356 59.02794428031174 L 42.48703814567722 260.21735161401523 L 43.233089187505925 260.2505693173015 L 19.12465316218004 59.6752178115494 Z" visibility="hidden"></path></g><g stroke-linejoin="round" data-z-index="-1000" aria-hidden="true"><path fill="none" d="M 606.6189334940243 260.21735161401523 L 606.7669108124941 260.2505693173015 L 614.3694018090405 326.9143278013126 L 614.2913466941841 327.5286808577627 Z" visibility="hidden"></path><path fill="none" d="M 639.8551878119526 126.32182908139819 L 639.8551878119526 126.32182908139819 L 630.87534683782 59.6752178115494 L 630.7881344009603 59.02794428031174 Z" visibility="hidden"></path><path fill="none" d="M 639.8551878119526 126.32182908139819 L 614.3694018090405 326.9143278013126 L 606.7669108124941 260.2505693173015 L 630.87534683782 59.6752178115494 Z" visibility="hidden"></path><path fill="none" d="M 614.2913466941841 327.5286808577627 L 639.8551878119526 126.32182908139819 L 630.7881344009603 59.02794428031174 L 606.6189334940243 260.21735161401523 Z" visibility="hidden"></path><path fill="none" d="M 639.8551878119526 126.32182908139819 L 614.2913466941841 327.5286808577627 L 614.3694018090405 326.9143278013126 L 639.8551878119526 126.32182908139819 Z" visibility="hidden"></path><path fill="none" d="M 606.6189334940243 260.21735161401523 L 630.7881344009603 59.02794428031174 L 630.87534683782 59.6752178115494 L 606.7669108124941 260.2505693173015 Z" visibility="hidden"></path></g><g stroke-linejoin="round" data-z-index="-1000" aria-hidden="true"><path fill="none" d="M 606.6189334940243 260.21735161401523 L 42.48703814567722 260.21735161401523 L 43.233089187505925 260.2505693173015 L 606.7669108124941 260.2505693173015 Z" visibility="hidden"></path><path fill="none" d="M 18.241109616814356 59.02794428031174 L 630.7881344009603 59.02794428031174 L 630.87534683782 59.6752178115494 L 19.12465316218004 59.6752178115494 Z" visibility="visible"></path><path fill="none" d="M 42.48703814567722 260.21735161401523 L 18.241109616814356 59.02794428031174 L 19.12465316218004 59.6752178115494 L 43.233089187505925 260.2505693173015 Z" visibility="hidden"></path><path fill="none" d="M 630.7881344009603 59.02794428031174 L 606.6189334940243 260.21735161401523 L 606.7669108124941 260.2505693173015 L 630.87534683782 59.6752178115494 Z" visibility="hidden"></path><path fill="none" d="M 19.12465316218004 59.6752178115494 L 630.87534683782 59.6752178115494 L 606.7669108124941 260.2505693173015 L 43.233089187505925 260.2505693173015 Z" visibility="visible"></path><path fill="none" d="M 42.48703814567722 260.21735161401523 L 606.6189334940243 260.21735161401523 L 630.7881344009603 59.02794428031174 L 18.241109616814356 59.02794428031174 Z" visibility="hidden"></path></g><rect fill="none" x="10" y="47" width="630" height="300" aria-hidden="true"></rect><g data-z-index="0" aria-hidden="true"></g><rect fill="none" data-z-index="1" x="10" y="47" width="630" height="300" aria-hidden="true"></rect><g data-z-index="3" aria-hidden="false"><g data-z-index="0.1" opacity="1" transform="translate(10,47) scale(1 1)" style="cursor: pointer;" aria-hidden="false" clip-path="none"><path fill="#94d13d" d="M 0 0" data-z-index="-1" fill-opacity="0.25" visibility="hidden"></path><path fill="rgb(123,184,36)" d="M 369.23447845962374 220.9035307520458 L 369.23447845962374 244.76838461709178 L 315 173.86485386504597 L 315 150 Z" data-z-index="20.163647305236008" transform="translate(0,0)" opacity="1"></path><path fill="rgb(20,193,168)" d="M 244.97965599523968 86.38729912409383 L 244.97965599523968 110.2521529891398 L 315 173.86485386504597 L 315 150 Z" data-z-index="39.49905808426557" transform="translate(0,0)" opacity="1"></path><path fill="rgb(20,193,168)" d="M 314.9545162373521 69.38983336071269 L 314.9545162373521 93.25468722575866 L 315 173.86485386504597 L 315 150 Z" data-z-index="65477.50905808426" transform="translate(0,0)" opacity="1"></path><path fill="rgb(20,128,229)" d="M 201.38860716248854 156.65024125579845 L 201.38860716248854 180.51509512084442 L 315 173.86485386504597 L 315 150 Z" data-z-index="65478.49905808423" transform="translate(0,0)" opacity="1"></path><path fill="rgb(20,193,168)" d="M 244.97965599523968 86.38729912409383 C 265.886905232749 74.88069145262062 288.4608000171834 69.39730781431115 314.9545162373521 69.38983336071269 L 314.9545162373521 93.25468722575866 C 288.4608000171834 93.26216167935712 265.886905232749 98.7455453176666 244.97965599523968 110.2521529891398 Z" data-z-index="66138.89803846895" transform="translate(0,0)" opacity="1"></path><path fill="rgb(20,193,168)" d="M 315 150 C 315 150 315 150 315 150 L 315 173.86485386504597 C 315 173.86485386504597 315 173.86485386504597 315 173.86485386504597 Z" data-z-index="66138.89803846895" transform="translate(0,0)" opacity="1"></path><path fill="rgb(20,128,229)" d="M 244.97875637929758 86.3877942458751 L 244.97875637929758 110.25264811092107 L 315 173.86485386504597 L 315 150 Z" data-z-index="163685.50905808428" transform="translate(0,0)" opacity="1"></path><path fill="rgb(86,63,208)" d="M 369.2334757295639 220.90391424417555 L 369.2334757295639 244.76876810922153 L 315 173.86485386504597 L 315 150 Z" data-z-index="163686.4990580843" transform="translate(0,0)" opacity="1"></path><path fill="rgb(20,128,229)" d="M 201.38860716248854 156.65024125579845 C 201.11549754592178 154.31736619593397 201 152.34085464654862 201 150 L 201 173.86485386504597 C 201 148.09056388429147 216.21455572276713 126.08376949594775 244.97875637929758 110.25264811092107 L 244.97875637929758 86.3877942458751 C 216.21455572276713 102.21891563090178 201 124.22571001924548 201 150 L 201 173.86485386504597 C 201 176.2057085115946 201.11549754592178 178.18222006097994 201.38860716248854 180.51509512084442 Z" data-z-index="165338.89803846896" transform="translate(0,0)" opacity="1"></path><path fill="rgb(20,128,229)" d="M 315 150 C 315 150 315 150 315 150 L 315 173.86485386504597 C 315 173.86485386504597 315 173.86485386504597 315 173.86485386504597 Z" data-z-index="165338.89803846896" transform="translate(0,0)" opacity="1"></path><path fill="rgb(123,184,36)" d="M 314.97678125477876 69.38982861670038 L 314.97678125477876 93.25468248174636 L 315 173.86485386504597 L 315 150 Z" data-z-index="261932.84635269473" transform="translate(0,0)" opacity="1"></path><path fill="rgb(86,63,208)" d="M 201.38870121678286 156.6510446093289 L 201.38870121678286 180.51589847437486 L 315 173.86485386504597 L 315 150 Z" data-z-index="261933.83635269478" transform="translate(0,0)" opacity="1"></path><path fill="rgb(123,184,36)" d="M 429 150 C 429 180.4675443531735 407.1337147400546 206.4088695420474 369.23447845962374 220.9035307520458 L 369.23447845962374 244.76838461709178 C 407.1337147400546 230.27372340709337 429 204.33239821821948 429 173.86485386504597 Z" data-z-index="264578.6326794896" transform="translate(0,0)" opacity="1"></path><path fill="rgb(123,184,36)" d="M 315 150 C 315 150 315 150 315 150 C 315 150 315 150 315 150 L 315 173.86485386504597 C 315 173.86485386504597 315 173.86485386504597 315 173.86485386504597 C 315 173.86485386504597 315 173.86485386504597 315 173.86485386504597 Z" data-z-index="264578.6326794896" transform="translate(0,0)" opacity="1"></path><path fill="rgb(86,63,208)" d="M 369.2334757295639 220.90391424417555 C 313.854073944365 242.08340394267321 244.67904442630467 227.50800899605923 214.72672285054804 188.34885845569067 C 206.84784666412358 178.0481511167696 202.75517623318618 168.3219181703516 201.38870121678286 156.6510446093289 L 201.38870121678286 180.51589847437486 C 206.5834901877114 224.8838704666327 261.6602097640207 257.8734441622464 324.40599749046135 254.20017365406977 C 340.91110516520126 253.233929903649 354.6660757088256 250.33997488877148 369.2334757295639 244.76876810922153 Z" data-z-index="264579.6326794897" transform="translate(0,0)" opacity="1"></path><path fill="rgb(86,63,208)" d="M 315 150 C 315 150 315 150 315 150 C 315 150 315 150 315 150 L 315 173.86485386504597 C 315 173.86485386504597 315 173.86485386504597 315 173.86485386504597 C 315 173.86485386504597 315 173.86485386504597 315 173.86485386504597 Z" data-z-index="264579.6326794897" transform="translate(0,0)" opacity="1"></path><g data-z-index="31416026.53589793" z="0" alpha="45" beta="0" center="315,150,228,0" stroke="#94d13d" stroke-width="1" stroke-linejoin="round" tabindex="-1" role="img" aria-label="Item 1, 80." style="outline: none;"><path fill="rgb(148,209,61)" d="M 314.97678125477876 69.38982861670038 C 377.9372414296019 69.3807611326675 428.98717427658596 105.46381353156036 428.99999763548186 149.9835818678034 C 429.00877509066106 180.45689812857893 407.14089532678025 206.40612330803077 369.23447845962374 220.9035307520458 L 315 150 C 315 150 315 150 315 150 C 315 150 315 150 315 150 Z" data-z-index="314160.2653589793" transform="translate(0,0)" opacity="1" ></path></g><g data-z-index="31416026.53589793" z="0" alpha="45" beta="0" center="315,150,228,0" stroke="#6f58e9" stroke-width="1" stroke-linejoin="round" tabindex="-1" role="img" aria-label="Item 2, 60." style="outline: none;"><path fill="#6f58e9" d="M 369.2334757295639 220.90391424417555 C 313.854073944365 242.08340394267321 244.67904442630467 227.50800899605923 214.72672285054804 188.34885845569067 C 206.84784666412358 178.0481511167696 202.75517623318618 168.3219181703516 201.38870121678286 156.6510446093289 L 315 150 C 315 150 315 150 315 150 C 315 150 315 150 315 150 Z" data-z-index="314160.2653589793" transform="translate(0,0)" opacity="1" ></path></g><g data-z-index="31416026.53589793" z="0" alpha="45" beta="0" center="315,150,228,0" stroke="#2d99fe" stroke-width="1" stroke-linejoin="round" tabindex="-1" role="img" aria-label="Item 3, 30." style="outline: none;"><path fill="#2d99fe" d="M 201.38860716248854 156.65024125579845 C 198.10838795699325 128.63093651074593 213.60215348738552 103.65671873166174 244.97875637929758 86.3877942458751 L 315 150 C 315 150 315 150 315 150 Z" data-z-index="314160.2653589793" transform="translate(0,0)" opacity="1" ></path></g><g data-z-index="31416026.53589793" z="0" alpha="45" beta="0" center="315,150,228,0" stroke="#2ddac1" stroke-width="1" stroke-linejoin="round" tabindex="-1" role="img" aria-label="Item 4, 20." style="outline: none;"><path fill="#2ddac1" d="M 244.97965599523968 86.38729912409383 C 265.886905232749 74.88069145262062 288.4608000171834 69.39730781431115 314.9545162373521 69.38983336071269 L 315 150 C 315 150 315 150 315 150 Z" data-z-index="314160.2653589793" transform="translate(0,0)" opacity="1" ></path></g></g><g data-z-index="0.1" opacity="1" transform="translate(10,47) scale(1 1)" aria-hidden="true" clip-path="none"></g></g><g data-z-index="3" aria-hidden="true"><g stroke-linecap="round" style="cursor: pointer;" transform="translate(616,10)"><title>Chart context menu</title><rect fill="#ffffff" x="0.5" y="0.5" width="24" height="22" rx="2" ry="2" stroke="none" stroke-width="1"></rect><path fill="#666666" d="M 6 6.5 L 20 6.5 M 6 11.5 L 20 11.5 M 6 16.5 L 20 16.5" data-z-index="1" stroke="#666666" stroke-width="3"></path><text font-family='Roboto-Regular,Roboto' x="0" data-z-index="1" y="15.5" style="color: rgb(51, 51, 51); font-weight: normal; fill: rgb(51, 51, 51);"></text></g></g><text font-family='Roboto-Regular,Roboto' x="325" text-anchor="middle" data-z-index="4" style="color: rgb(51, 51, 51); font-size: 18px; fill: rgb(51, 51, 51);" y="24" aria-hidden="true">Chart title</text><text font-family='Roboto-Regular,Roboto' x="325" text-anchor="middle" data-z-index="4" style="color: rgb(102, 102, 102); fill: rgb(102, 102, 102);" y="46" aria-hidden="true"></text><text font-family='Roboto-Regular,Roboto' x="10" text-anchor="start" data-z-index="4" style="color: rgb(102, 102, 102); fill: rgb(102, 102, 102);" y="397" aria-hidden="true"></text><g data-z-index="6" opacity="1" transform="translate(10,47) scale(1 1)" aria-hidden="true" style="cursor: pointer;"><path fill="none" stroke="#94d13d" stroke-width="1" d="M 461.4166474120698 122.84614512209481 C 456.4166474120698 122.84614512209481 437.1444335083556 127.26488389062916 431.3280319127196 128.73779681347398 L 425.51163031708364 130.2107097363188" opacity="1"></path><path fill="none" stroke="#6f58e9" stroke-width="1" d="M 203.82871016407935 247.28133024674844 C 208.82871016407935 247.28133024674844 255.03062847732878 231.45080272503162 257.8863128355512 226.17396021779268 L 260.74199719377367 220.89711771055374" opacity="1"></path><path fill="none" stroke="#2d99fe" stroke-width="1" d="M 173.02576419133453 105.56961935080787 C 178.02576419133453 105.56961935080787 199.61256084146274 112.80013699456131 205.10720080139308 115.21030954247912 L 210.60184076132342 117.62048209039693" opacity="1"></path><path fill="none" stroke="#2ddac1" stroke-width="1" d="M 211.05133169989955 45.38087631012817 C 216.05133169989955 45.38087631012817 274.08786688020973 62.4055866607396 276.03606369543786 68.0804901109434 L 277.984260510666 73.7553935611472" opacity="1"></path><g data-z-index="1" transform="translate(466,113)" style="cursor: pointer;" opacity="1"><text font-family='Roboto-Regular,Roboto' x="5" data-z-index="1" y="16" style="color: rgb(0, 0, 0); font-size: 11px; font-weight: bold; fill: rgb(0, 0, 0);"><tspan style="font-weight: bold;">Item 1</tspan>: 42.1 %</text></g><g data-z-index="1" transform="translate(118,237)" style="cursor: pointer;" opacity="1"><text font-family='Roboto-Regular,Roboto' x="5" data-z-index="1" y="16" style="color: rgb(0, 0, 0); font-size: 11px; font-weight: bold; fill: rgb(0, 0, 0);"><tspan style="font-weight: bold;">Item 2</tspan>: 31.6 %</text></g><g data-z-index="1" transform="translate(88,96)" style="cursor: pointer;" opacity="1"><text font-family='Roboto-Regular,Roboto' x="5" data-z-index="1" y="16" style="color: rgb(0, 0, 0); font-size: 11px; font-weight: bold; fill: rgb(0, 0, 0);"><tspan style="font-weight: bold;">Item 3</tspan>: 15.8 %</text></g><g data-z-index="1" transform="translate(126,35)" style="cursor: pointer;" opacity="1"><text font-family='Roboto-Regular,Roboto' x="5" data-z-index="1" y="16" style="color: rgb(0, 0, 0); font-size: 11px; font-weight: bold; fill: rgb(0, 0, 0);"><tspan style="font-weight: bold;">Item 4</tspan>: 10.5 %</text></g></g><g data-z-index="7" aria-hidden="true" transform="translate(175,359)"><rect fill="none" rx="0" ry="0" x="0" y="0" width="299" height="26"></rect><g data-z-index="1"><g><g data-z-index="1" transform="translate(8,3)"><text font-family='Roboto-Regular,Roboto' x="21" text-anchor="start" data-z-index="2" y="15" style="color: rgb(51, 51, 51); cursor: pointer; font-size: 12px; font-weight: bold; fill: rgb(51, 51, 51);">Item 1</text><rect x="2" y="4" width="12" height="12" fill="#94d13d" rx="6" ry="6" data-z-index="3"></rect></g><g data-z-index="1" transform="translate(83.78125,3)"><text font-family='Roboto-Regular,Roboto' x="21" y="15" text-anchor="start" data-z-index="2" style="color: rgb(51, 51, 51); cursor: pointer; font-size: 12px; font-weight: bold; fill: rgb(51, 51, 51);">Item 2</text><rect x="2" y="4" width="12" height="12" fill="#6f58e9" rx="6" ry="6" data-z-index="3"></rect></g><g data-z-index="1" transform="translate(159.5625,3)"><text font-family='Roboto-Regular,Roboto' x="21" y="15" text-anchor="start" data-z-index="2" style="color: rgb(51, 51, 51); cursor: pointer; font-size: 12px; font-weight: bold; fill: rgb(51, 51, 51);">Item 3</text><rect x="2" y="4" width="12" height="12" fill="#2d99fe" rx="6" ry="6" data-z-index="3"></rect></g><g data-z-index="1" transform="translate(235.34375,3)"><text font-family='Roboto-Regular,Roboto' x="21" y="15" text-anchor="start" data-z-index="2" style="color: rgb(51, 51, 51); cursor: pointer; font-size: 12px; font-weight: bold; fill: rgb(51, 51, 51);">Item 4</text><rect x="2" y="4" width="12" height="12" fill="#2ddac1" rx="6" ry="6" data-z-index="3"></rect></g></g></g></g><g stroke-linejoin="round" data-z-index="1000" aria-hidden="true"><path fill="none" d="M 18.241109616814356 59.02794428031174 L 630.7881344009603 59.02794428031174 L 639.8551878119526 126.32182908139819 L 9.145271909279359 126.32182908139819 Z" visibility="hidden"></path><path fill="none" d="M 10.14481218804741 126.32182908139819 L 639.8551878119526 126.32182908139819 L 630.87534683782 59.6752178115494 L 19.12465316218004 59.6752178115494 Z" visibility="hidden"></path><path fill="none" d="M 18.241109616814356 59.02794428031174 L 9.145271909279359 126.32182908139819 L 10.14481218804741 126.32182908139819 L 19.12465316218004 59.6752178115494 Z" visibility="hidden"></path><path fill="none" d="M 639.8551878119526 126.32182908139819 L 630.7881344009603 59.02794428031174 L 630.87534683782 59.6752178115494 L 639.8551878119526 126.32182908139819 Z" visibility="hidden"></path><path fill="none" d="M 9.145271909279359 126.32182908139819 L 639.8551878119526 126.32182908139819 L 639.8551878119526 126.32182908139819 L 10.14481218804741 126.32182908139819 Z" visibility="hidden"></path><path fill="none" d="M 630.7881344009603 59.02794428031174 L 18.241109616814356 59.02794428031174 L 19.12465316218004 59.6752178115494 L 630.87534683782 59.6752178115494 Z" visibility="hidden"></path></g><g stroke-linejoin="round" data-z-index="1000" aria-hidden="true"><path fill="none" d="M 34.79026807821538 327.5286808577627 L 614.2913466941841 327.5286808577627 L 614.3694018090405 326.9143278013126 L 35.63059819095952 326.9143278013126 Z" visibility="hidden"></path><path fill="none" d="M 639.8551878119526 126.32182908139819 L 9.145271909279359 126.32182908139819 L 10.14481218804741 126.32182908139819 L 639.8551878119526 126.32182908139819 Z" visibility="hidden"></path><path fill="none" d="M 9.145271909279359 126.32182908139819 L 34.79026807821538 327.5286808577627 L 35.63059819095952 326.9143278013126 L 10.14481218804741 126.32182908139819 Z" visibility="hidden"></path><path fill="none" d="M 614.2913466941841 327.5286808577627 L 639.8551878119526 126.32182908139819 L 639.8551878119526 126.32182908139819 L 614.3694018090405 326.9143278013126 Z" visibility="hidden"></path><path fill="none" d="M 639.8551878119526 126.32182908139819 L 10.14481218804741 126.32182908139819 L 35.63059819095952 326.9143278013126 L 614.3694018090405 326.9143278013126 Z" visibility="hidden"></path><path fill="none" d="M 614.2913466941841 327.5286808577627 L 34.79026807821538 327.5286808577627 L 9.145271909279359 126.32182908139819 L 639.8551878119526 126.32182908139819 Z" visibility="hidden"></path></g></svg>
